# xmcd
#
# Track frame offsets:
#	150
#	10618
#	19892
#	30603
#	41213
#	52666
#	64272
#	74758
#	86450
#	98084
#	109257
#	119846
#	132016
#	140850
#	151441
#	161391
#	170777
#	180801
#	190608
#	201090
#	212794
#	223350
#	232067
#	242167
#	251841
#	262376
#	274454
#	283194
#
# Disc length: 3922 seconds
#
# Revision: 0
# Processed by: cddbd v1.4PL0 Copyright (c) Steve Scherf et al.
# Submitted via: MusicWizard 6.0.0
#
DISCID=b70f501c
DTITLE=Johnny Horton - Rockin' Rollin' Johnny Horton
DYEAR=1982
DGENRE=50er Ctry
TTITLE0=Tennessee Jive
TTITLE1=S.S. Lureline
TTITLE2=First Train Heading South
TTITLE3=No True Love
TTITLE4=You You You
TTITLE5=I Won't Forget
TTITLE6=Move Down The Line
TTITLE7=You Don't Move Me Baby Anymore
TTITLE8=My Sweet, Sweet Thing
TTITLE9=The Devil Made A Masterpiece
TTITLE10=Ridin' The Sunshine Special
TTITLE11=The Train With The Rhumba Beat
TTITLE12=Sal's Got A Sugar Lip
TTITLE13=Honky Tonk Hardwood Floor
TTITLE14=Honky Tonk Man
TTITLE15=I'm Coming Home
TTITLE16=The Woman I Need  (Honky Tonk Mind)
TTITLE17=Tell My Baby I Love Her
TTITLE18=The First Train Heading South
TTITLE19=Lover's Rock
TTITLE20=The Electrified Donkey
TTITLE21=All Grown Up
TTITLE22=Sugar Coated Baby
TTITLE23=Let's Take The Long Way Home
TTITLE24=Ole Slew-Foot
TTITLE25=Sleepy Eyed John
TTITLE26=The Wild One
TTITLE27=I'm Ready If You're Willing
EXTD=(c)1982 Bear Family Germany
EXTT0=
EXTT1=
EXTT2=
EXTT3=
EXTT4=
EXTT5=
EXTT6=
EXTT7=
EXTT8=
EXTT9=
EXTT10=
EXTT11=
EXTT12=
EXTT13=
EXTT14=
EXTT15=
EXTT16=
EXTT17=
EXTT18=
EXTT19=
EXTT20=
EXTT21=
EXTT22=
EXTT23=
EXTT24=
EXTT25=
EXTT26=
EXTT27=
PLAYORDER=
